<svg id="visual" viewBox="0 0 900 600" width="900" height="600" xmlns="http://www.w3.org/2000/svg" xmlns:xlink="http://www.w3.org/1999/xlink" version="1.1"><rect x="0" y="0" width="900" height="600" fill="#F8EDE3"></rect><path d="M721 600L726.8 591.7C732.7 583.3 744.3 566.7 749.7 550C755 533.3 754 516.7 741.8 500C729.7 483.3 706.3 466.7 704.7 450C703 433.3 723 416.7 737.5 400C752 383.3 761 366.7 758.8 350C756.7 333.3 743.3 316.7 740.7 300C738 283.3 746 266.7 750.7 250C755.3 233.3 756.7 216.7 743.8 200C731 183.3 704 166.7 704.3 150C704.7 133.3 732.3 116.7 741.5 100C750.7 83.3 741.3 66.7 740.3 50C739.3 33.3 746.7 16.7 750.3 8.3L754 0L900 0L900 8.3C900 16.7 900 33.3 900 50C900 66.7 900 83.3 900 100C900 116.7 900 133.3 900 150C900 166.7 900 183.3 900 200C900 216.7 900 233.3 900 250C900 266.7 900 283.3 900 300C900 316.7 900 333.3 900 350C900 366.7 900 383.3 900 400C900 416.7 900 433.3 900 450C900 466.7 900 483.3 900 500C900 516.7 900 533.3 900 550C900 566.7 900 583.3 900 591.7L900 600Z" fill="#dfd3c3"></path><path d="M737 600L747.7 591.7C758.3 583.3 779.7 566.7 784.7 550C789.7 533.3 778.3 516.7 773.8 500C769.3 483.3 771.7 466.7 763.3 450C755 433.3 736 416.7 732.5 400C729 383.3 741 366.7 750.5 350C760 333.3 767 316.7 760.7 300C754.3 283.3 734.7 266.7 736.5 250C738.3 233.3 761.7 216.7 763.5 200C765.3 183.3 745.7 166.7 737.5 150C729.3 133.3 732.7 116.7 737.2 100C741.7 83.3 747.3 66.7 752.7 50C758 33.3 763 16.7 765.5 8.3L768 0L900 0L900 8.3C900 16.7 900 33.3 900 50C900 66.7 900 83.3 900 100C900 116.7 900 133.3 900 150C900 166.7 900 183.3 900 200C900 216.7 900 233.3 900 250C900 266.7 900 283.3 900 300C900 316.7 900 333.3 900 350C900 366.7 900 383.3 900 400C900 416.7 900 433.3 900 450C900 466.7 900 483.3 900 500C900 516.7 900 533.3 900 550C900 566.7 900 583.3 900 591.7L900 600Z" fill="#ceb7ad"></path><path d="M773 600L782.2 591.7C791.3 583.3 809.7 566.7 815 550C820.3 533.3 812.7 516.7 807.8 500C803 483.3 801 466.7 802.7 450C804.3 433.3 809.7 416.7 801.8 400C794 383.3 773 366.7 773 350C773 333.3 794 316.7 796.2 300C798.3 283.3 781.7 266.7 782.3 250C783 233.3 801 216.7 804.3 200C807.7 183.3 796.3 166.7 791.8 150C787.3 133.3 789.7 116.7 783.7 100C777.7 83.3 763.3 66.7 762.5 50C761.7 33.3 774.3 16.7 780.7 8.3L787 0L900 0L900 8.3C900 16.7 900 33.3 900 50C900 66.7 900 83.3 900 100C900 116.7 900 133.3 900 150C900 166.7 900 183.3 900 200C900 216.7 900 233.3 900 250C900 266.7 900 283.3 900 300C900 316.7 900 333.3 900 350C900 366.7 900 383.3 900 400C900 416.7 900 433.3 900 450C900 466.7 900 483.3 900 500C900 516.7 900 533.3 900 550C900 566.7 900 583.3 900 591.7L900 600Z" fill="#b99c9c"></path><path d="M845 600L841 591.7C837 583.3 829 566.7 828.2 550C827.3 533.3 833.7 516.7 836 500C838.3 483.3 836.7 466.7 838.7 450C840.7 433.3 846.3 416.7 839.5 400C832.7 383.3 813.3 366.7 804.2 350C795 333.3 796 316.7 803.3 300C810.7 283.3 824.3 266.7 825.2 250C826 233.3 814 216.7 809 200C804 183.3 806 166.7 807 150C808 133.3 808 116.7 809.2 100C810.3 83.3 812.7 66.7 811.3 50C810 33.3 805 16.7 802.5 8.3L800 0L900 0L900 8.3C900 16.7 900 33.3 900 50C900 66.7 900 83.3 900 100C900 116.7 900 133.3 900 150C900 166.7 900 183.3 900 200C900 216.7 900 233.3 900 250C900 266.7 900 283.3 900 300C900 316.7 900 333.3 900 350C900 366.7 900 383.3 900 400C900 416.7 900 433.3 900 450C900 466.7 900 483.3 900 500C900 516.7 900 533.3 900 550C900 566.7 900 583.3 900 591.7L900 600Z" fill="#9e838f"></path><path d="M849 600L851 591.7C853 583.3 857 566.7 861.7 550C866.3 533.3 871.7 516.7 873.2 500C874.7 483.3 872.3 466.7 869.2 450C866 433.3 862 416.7 860.2 400C858.3 383.3 858.7 366.7 855.2 350C851.7 333.3 844.3 316.7 839.3 300C834.3 283.3 831.7 266.7 836.3 250C841 233.3 853 216.7 861.2 200C869.3 183.3 873.7 166.7 873.2 150C872.7 133.3 867.3 116.7 865 100C862.7 83.3 863.3 66.7 864 50C864.7 33.3 865.3 16.7 865.7 8.3L866 0L900 0L900 8.3C900 16.7 900 33.3 900 50C900 66.7 900 83.3 900 100C900 116.7 900 133.3 900 150C900 166.7 900 183.3 900 200C900 216.7 900 233.3 900 250C900 266.7 900 283.3 900 300C900 316.7 900 333.3 900 350C900 366.7 900 383.3 900 400C900 416.7 900 433.3 900 450C900 466.7 900 483.3 900 500C900 516.7 900 533.3 900 550C900 566.7 900 583.3 900 591.7L900 600Z" fill="#7d6e83"></path></svg>