<svg id="visual" viewBox="0 0 900 600" width="900" height="600" xmlns="http://www.w3.org/2000/svg" xmlns:xlink="http://www.w3.org/1999/xlink" version="1.1"><rect x="0" y="0" width="900" height="600" fill="#F8EDE3"></rect><path d="M696 600L706.8 588.8C717.7 577.7 739.3 555.3 744.2 533.2C749 511 737 489 729.5 466.8C722 444.7 719 422.3 716.8 400C714.7 377.7 713.3 355.3 713 333.2C712.7 311 713.3 289 719 266.8C724.7 244.7 735.3 222.3 730.5 200C725.7 177.7 705.3 155.3 700.3 133.2C695.3 111 705.7 89 712.8 66.8C720 44.7 724 22.3 726 11.2L728 0L900 0L900 11.2C900 22.3 900 44.7 900 66.8C900 89 900 111 900 133.2C900 155.3 900 177.7 900 200C900 222.3 900 244.7 900 266.8C900 289 900 311 900 333.2C900 355.3 900 377.7 900 400C900 422.3 900 444.7 900 466.8C900 489 900 511 900 533.2C900 555.3 900 577.7 900 588.8L900 600Z" fill="#dfd3c3"></path><path d="M784 600L776.7 588.8C769.3 577.7 754.7 555.3 747.5 533.2C740.3 511 740.7 489 740.3 466.8C740 444.7 739 422.3 735.2 400C731.3 377.7 724.7 355.3 725.3 333.2C726 311 734 289 740.8 266.8C747.7 244.7 753.3 222.3 748.8 200C744.3 177.7 729.7 155.3 732.5 133.2C735.3 111 755.7 89 758.5 66.8C761.3 44.7 746.7 22.3 739.3 11.2L732 0L900 0L900 11.2C900 22.3 900 44.7 900 66.8C900 89 900 111 900 133.2C900 155.3 900 177.7 900 200C900 222.3 900 244.7 900 266.8C900 289 900 311 900 333.2C900 355.3 900 377.7 900 400C900 422.3 900 444.7 900 466.8C900 489 900 511 900 533.2C900 555.3 900 577.7 900 588.8L900 600Z" fill="#ceb7ad"></path><path d="M754 600L753.8 588.8C753.7 577.7 753.3 555.3 756 533.2C758.7 511 764.3 489 770.8 466.8C777.3 444.7 784.7 422.3 785.7 400C786.7 377.7 781.3 355.3 779.3 333.2C777.3 311 778.7 289 774.7 266.8C770.7 244.7 761.3 222.3 768.8 200C776.3 177.7 800.7 155.3 804 133.2C807.3 111 789.7 89 784.5 66.8C779.3 44.7 786.7 22.3 790.3 11.2L794 0L900 0L900 11.2C900 22.3 900 44.7 900 66.8C900 89 900 111 900 133.2C900 155.3 900 177.7 900 200C900 222.3 900 244.7 900 266.8C900 289 900 311 900 333.2C900 355.3 900 377.7 900 400C900 422.3 900 444.7 900 466.8C900 489 900 511 900 533.2C900 555.3 900 577.7 900 588.8L900 600Z" fill="#b99c9c"></path><path d="M798 600L800.5 588.8C803 577.7 808 555.3 811.5 533.2C815 511 817 489 817.2 466.8C817.3 444.7 815.7 422.3 812.8 400C810 377.7 806 355.3 805.3 333.2C804.7 311 807.3 289 816.2 266.8C825 244.7 840 222.3 842.8 200C845.7 177.7 836.3 155.3 834 133.2C831.7 111 836.3 89 840 66.8C843.7 44.7 846.3 22.3 847.7 11.2L849 0L900 0L900 11.2C900 22.3 900 44.7 900 66.8C900 89 900 111 900 133.2C900 155.3 900 177.7 900 200C900 222.3 900 244.7 900 266.8C900 289 900 311 900 333.2C900 355.3 900 377.7 900 400C900 422.3 900 444.7 900 466.8C900 489 900 511 900 533.2C900 555.3 900 577.7 900 588.8L900 600Z" fill="#9e838f"></path><path d="M841 600L845.3 588.8C849.7 577.7 858.3 555.3 859.5 533.2C860.7 511 854.3 489 855.5 466.8C856.7 444.7 865.3 422.3 863.2 400C861 377.7 848 355.3 849.5 333.2C851 311 867 289 872 266.8C877 244.7 871 222.3 870.2 200C869.3 177.7 873.7 155.3 872 133.2C870.3 111 862.7 89 858.2 66.8C853.7 44.7 852.3 22.3 851.7 11.2L851 0L900 0L900 11.2C900 22.3 900 44.7 900 66.8C900 89 900 111 900 133.2C900 155.3 900 177.7 900 200C900 222.3 900 244.7 900 266.8C900 289 900 311 900 333.2C900 355.3 900 377.7 900 400C900 422.3 900 444.7 900 466.8C900 489 900 511 900 533.2C900 555.3 900 577.7 900 588.8L900 600Z" fill="#7d6e83"></path></svg>